<?xml version="1.0" standalone="no"?><!DOCTYPE svg PUBLIC "-//W3C//DTD SVG 1.1//EN" "http://www.w3.org/Graphics/SVG/1.1/DTD/svg11.dtd"><svg t="1532570298863" class="icon" style="" viewBox="0 0 1024 1024" version="1.1" xmlns="http://www.w3.org/2000/svg" p-id="11855" xmlns:xlink="http://www.w3.org/1999/xlink" width="200" height="200"><defs><style type="text/css"></style></defs><path d="M512 512m-512 0a512 512 0 1 0 1024 0 512 512 0 1 0-1024 0Z" fill="#F5BD35" p-id="11856"></path><path d="M353.047273 741.469091a46.545455 46.545455 0 0 1-32.814546-79.36L649.309091 333.032727a46.545455 46.545455 0 0 1 65.861818 65.861818L385.861818 727.970909a46.545455 46.545455 0 0 1-32.814545 13.498182z" fill="#966625" p-id="11857"></path><path d="M682.123636 741.469091a46.545455 46.545455 0 0 1-32.814545-13.730909L320 398.894545a46.545455 46.545455 0 0 1 65.861818-65.861818l329.076364 329.076364a46.545455 46.545455 0 0 1-32.814546 79.36z" fill="#966625" p-id="11858"></path></svg>