<?xml version="1.0" standalone="no"?><!DOCTYPE svg PUBLIC "-//W3C//DTD SVG 1.1//EN" "http://www.w3.org/Graphics/SVG/1.1/DTD/svg11.dtd"><svg t="1532570221225" class="icon" style="" viewBox="0 0 1024 1024" version="1.1" xmlns="http://www.w3.org/2000/svg" p-id="11155" xmlns:xlink="http://www.w3.org/1999/xlink" width="200" height="200"><defs><style type="text/css"></style></defs><path d="M814.2 80.4c13.3 0 25.8 5.2 35.3 14.7 9.5 9.5 14.7 22 14.7 35.3V894c0 13.3-5.2 25.8-14.7 35.3-9.5 9.5-22 14.7-35.3 14.7H258.1c-13.3 0-25.8-5.2-35.3-14.7-9.5-9.5-14.7-22-14.7-35.3V130.3c0-13.3 5.2-25.8 14.7-35.3 9.5-9.5 22-14.7 35.3-14.7h556.1m0-15.9H258.1c-36.3 0-66 29.7-66 66V894c0 36.3 29.7 66 66 66h556.1c36.3 0 66-29.7 66-66V130.3c-0.1-36.3-29.8-65.9-66-65.9z" fill="#581166" p-id="11156"></path><path d="M814.2 80.4c13.3 0 25.8 5.2 35.3 14.7 9.5 9.5 14.7 22 14.7 35.3V894c0 13.3-5.2 25.8-14.7 35.3-9.5 9.5-22 14.7-35.3 14.7H258.1c-13.3 0-25.8-5.2-35.3-14.7-9.5-9.5-14.7-22-14.7-35.3V130.3c0-13.3 5.2-25.8 14.7-35.3 9.5-9.5 22-14.7 35.3-14.7h556.1" fill="#FFC86B" p-id="11157"></path><path d="M775 903.7H346c-13.6 0-26.4-5.5-36.1-15.5-9.6-9.9-14.9-23-14.9-36.9V173c0-13.9 5.3-27 14.9-36.9 9.7-10 22.5-15.5 36.1-15.5h429c13.6 0 26.4 5.5 36.1 15.5 9.6 9.9 14.9 23 14.9 36.9v678.3c0 13.9-5.3 27-14.9 36.9-9.7 10-22.5 15.5-36.1 15.5zM346 136.6c-9.2 0-18 3.8-24.6 10.6-6.7 6.9-10.4 16.1-10.4 25.8v678.3c0 9.7 3.7 18.8 10.4 25.8 6.6 6.8 15.4 10.6 24.6 10.6h429c9.2 0 18-3.8 24.6-10.6 6.7-6.9 10.4-16.1 10.4-25.8V173c0-9.7-3.7-18.8-10.4-25.8-6.6-6.8-15.4-10.6-24.6-10.6H346z" fill="#581166" p-id="11158"></path><path d="M245.5 196.4m-24 0a24 24 0 1 0 48 0 24 24 0 1 0-48 0Z" fill="#581166" p-id="11159"></path><path d="M245.5 302.9m-24 0a24 24 0 1 0 48 0 24 24 0 1 0-48 0Z" fill="#581166" p-id="11160"></path><path d="M245.5 409.3m-24 0a24 24 0 1 0 48 0 24 24 0 1 0-48 0Z" fill="#581166" p-id="11161"></path><path d="M245.5 515.8m-24 0a24 24 0 1 0 48 0 24 24 0 1 0-48 0Z" fill="#581166" p-id="11162"></path><path d="M245.5 622.3m-24 0a24 24 0 1 0 48 0 24 24 0 1 0-48 0Z" fill="#581166" p-id="11163"></path><path d="M245.5 728.7m-24 0a24 24 0 1 0 48 0 24 24 0 1 0-48 0Z" fill="#581166" p-id="11164"></path><path d="M245.5 835.2m-24 0a24 24 0 1 0 48 0 24 24 0 1 0-48 0Z" fill="#581166" p-id="11165"></path><path d="M346 136.6c-9.2 0-18 3.8-24.6 10.6-6.7 6.9-10.4 16.1-10.4 25.8v678.3c0 9.7 3.7 18.8 10.4 25.8 6.6 6.8 15.4 10.6 24.6 10.6h429c9.2 0 18-3.8 24.6-10.6 6.7-6.9 10.4-16.1 10.4-25.8V173c0-9.7-3.7-18.8-10.4-25.8-6.6-6.8-15.4-10.6-24.6-10.6H346z" fill="#FFF6E9" p-id="11166"></path><path d="M236.8 211.4h-77.9c-8.2 0-15-6.8-15-15s6.8-15 15-15h77.9c8.2 0 15 6.7 15 15s-6.7 15-15 15zM236.8 317.9h-77.9c-8.2 0-15-6.8-15-15s6.8-15 15-15h77.9c8.2 0 15 6.7 15 15 0 8.2-6.7 15-15 15zM236.8 424.3h-77.9c-8.2 0-15-6.7-15-15 0-8.2 6.8-15 15-15h77.9c8.2 0 15 6.8 15 15 0 8.3-6.7 15-15 15zM236.8 530.8h-77.9c-8.2 0-15-6.8-15-15s6.8-15 15-15h77.9c8.2 0 15 6.8 15 15 0 8.3-6.7 15-15 15zM236.8 637.3h-77.9c-8.2 0-15-6.8-15-15s6.8-15 15-15h77.9c8.2 0 15 6.8 15 15s-6.7 15-15 15zM236.8 743.7h-77.9c-8.2 0-15-6.8-15-15s6.8-15 15-15h77.9c8.2 0 15 6.8 15 15 0 8.3-6.7 15-15 15zM236.8 850.2h-77.9c-8.2 0-15-6.8-15-15s6.8-15 15-15h77.9c8.2 0 15 6.8 15 15 0 8.3-6.7 15-15 15zM728.6 229.4H503.4c-4.4 0-8 3.6-8 8s3.6 8 8 8h225.2c4.4 0 8-3.6 8-8s-3.6-8-8-8zM728.6 294.9H503.4c-4.4 0-8 3.6-8 8s3.6 8 8 8h225.2c4.4 0 8-3.6 8-8s-3.6-8-8-8zM416.7 751.7H404c-4.4 0-8 3.6-8 8s3.6 8 8 8h12.7c4.4 0 8-3.6 8-8s-3.6-8-8-8zM459.6 751.7h-12.7c-4.4 0-8 3.6-8 8s3.6 8 8 8h12.7c4.4 0 8-3.6 8-8s-3.6-8-8-8zM502.5 751.7h-12.7c-4.4 0-8 3.6-8 8s3.6 8 8 8h12.7c4.4 0 8-3.6 8-8s-3.6-8-8-8zM545.4 751.7h-12.7c-4.4 0-8 3.6-8 8s3.6 8 8 8h12.7c4.4 0 8-3.6 8-8s-3.6-8-8-8zM588.3 751.7h-12.7c-4.4 0-8 3.6-8 8s3.6 8 8 8h12.7c4.4 0 8-3.6 8-8s-3.6-8-8-8zM631.2 751.7h-12.7c-4.4 0-8 3.6-8 8s3.6 8 8 8h12.7c4.4 0 8-3.6 8-8s-3.6-8-8-8zM674.1 751.7h-12.7c-4.4 0-8 3.6-8 8s3.6 8 8 8h12.7c4.4 0 8-3.6 8-8s-3.6-8-8-8zM717 751.7h-12.7c-4.4 0-8 3.6-8 8s3.6 8 8 8H717c4.4 0 8-3.6 8-8s-3.6-8-8-8z" fill="#581166" p-id="11167"></path><path d="M728.6 817.2H392.4c-4.4 0-8 3.6-8 8s3.6 8 8 8h336.2c4.4 0 8-3.6 8-8s-3.6-8-8-8z" fill="#581166" p-id="11168"></path><path d="M409.8 268.4m-57.5 0a57.5 57.5 0 1 0 115 0 57.5 57.5 0 1 0-115 0Z" fill="#FF5855" p-id="11169"></path><path d="M409.8 229.2c21.6 0 39.2 17.6 39.2 39.2s-17.6 39.2-39.2 39.2-39.2-17.6-39.2-39.2 17.6-39.2 39.2-39.2m0-18.3c-31.8 0-57.5 25.7-57.5 57.5s25.7 57.5 57.5 57.5 57.5-25.7 57.5-57.5-25.7-57.5-57.5-57.5z" fill="#581166" p-id="11170"></path></svg>